<?xml version="1.0" standalone="no"?>
<!DOCTYPE svg PUBLIC "-//W3C//DTD SVG 20010904//EN"
 "http://www.w3.org/TR/2001/REC-SVG-20010904/DTD/svg10.dtd">
<svg version="1.0" xmlns="http://www.w3.org/2000/svg"
 width="700.000000pt" height="700.000000pt" viewBox="0 0 700.000000 700.000000"
 preserveAspectRatio="xMidYMid meet">
<metadata>
Created by potrace 1.14, written by Peter Selinger 2001-2017
</metadata>
<g transform="translate(0.000000,700.000000) scale(0.100000,-0.100000)"
fill="#000000" stroke="none">
<path d="M2594 6721 c-2 -2 -4 -406 -4 -898 l0 -893 -680 0 -680 0 0 -2334 0
-2334 753 3 c413 1 766 5 782 8 17 3 53 8 81 11 28 3 86 13 130 21 43 9 90 18
104 21 179 34 462 153 645 271 137 89 293 227 398 353 106 126 239 353 307
525 53 133 111 328 127 430 2 17 12 81 21 144 l17 113 93 34 c135 49 289 127
411 208 136 91 144 98 281 236 243 244 432 601 514 972 24 110 27 129 41 233
4 28 9 61 11 75 21 128 21 761 0 930 -2 14 -6 50 -10 80 -4 30 -9 66 -12 80
-2 14 -6 36 -9 50 -20 108 -69 294 -95 355 -4 11 -18 47 -31 80 -21 57 -103
224 -151 310 -20 35 -63 99 -125 185 -62 85 -193 218 -308 312 -185 151 -483
295 -735 354 -88 21 -95 23 -175 35 -38 6 -81 12 -95 15 -73 12 -317 17 -926
18 -372 0 -678 -1 -680 -3z m1511 -514 c11 -3 45 -8 75 -12 281 -37 536 -161
732 -359 254 -255 391 -598 434 -1081 7 -80 7 -633 0 -715 -7 -82 -17 -173
-21 -190 -2 -8 -7 -35 -10 -60 -10 -76 -64 -270 -102 -365 -111 -277 -282
-491 -517 -644 -43 -28 -81 -51 -85 -51 -3 0 -7 39 -7 88 -2 89 -11 236 -18
282 -3 14 -7 45 -11 70 -40 281 -154 610 -285 825 -17 28 -33 57 -37 65 -4 8
-12 21 -19 30 -7 8 -41 53 -75 100 -61 82 -187 215 -279 293 -141 119 -385
256 -579 323 l-96 34 -1 682 c-1 376 0 685 2 688 3 7 871 4 899 -3z m-1563
-1786 l48 -1 2 -1182 3 -1183 687 0 687 1 -5 -31 c-49 -279 -132 -496 -268
-695 -66 -97 -220 -250 -319 -318 -154 -106 -369 -191 -547 -217 -19 -3 -44
-7 -55 -10 -98 -20 -925 -29 -925 -10 0 5 -2 828 -3 1827 l-2 1817 40 3 c32 2
380 2 657 -1z m752 -176 c289 -165 502 -446 611 -809 30 -97 29 -93 39 -151 4
-22 11 -60 17 -85 21 -100 32 -259 33 -460 l1 -175 -396 -3 -395 -3 0 866 c0
476 3 865 6 865 3 0 41 -20 84 -45z"/>
</g>
</svg>
