<svg width="160" height="160" viewBox="0 0 160 160" fill="none" xmlns="http://www.w3.org/2000/svg">
<path d="M28.1592 154V47.3594H58.2617C67.5391 47.3594 75.7422 49.4102 82.8711 53.5117C90 57.6133 95.4932 63.4482 99.3506 71.0166C103.257 78.585 105.234 87.2764 105.283 97.0908V103.902C105.283 113.961 103.33 122.774 99.4238 130.343C95.5664 137.911 90.0244 143.722 82.7979 147.774C75.6201 151.827 67.2461 153.902 57.6758 154H28.1592ZM42.2217 58.9316V142.501H57.0166C67.8564 142.501 76.2793 139.132 82.2852 132.394C88.3398 125.655 91.3672 116.061 91.3672 103.609V97.3838C91.3672 85.2744 88.5107 75.875 82.7979 69.1855C77.1338 62.4473 69.0771 59.0293 58.6279 58.9316H42.2217Z" fill="#444444"/>
<path d="M59.1592 113V6.35938H89.2617C98.5391 6.35938 106.742 8.41016 113.871 12.5117C121 16.6133 126.493 22.4482 130.351 30.0166C134.257 37.585 136.234 46.2764 136.283 56.0908V62.9023C136.283 72.9609 134.33 81.7744 130.424 89.3428C126.566 96.9111 121.024 102.722 113.798 106.774C106.62 110.827 98.2461 112.902 88.6758 113H59.1592ZM73.2217 17.9316V101.501H88.0166C98.8564 101.501 107.279 98.1318 113.285 91.3936C119.34 84.6553 122.367 75.0605 122.367 62.6094V56.3838C122.367 44.2744 119.511 34.875 113.798 28.1855C108.134 21.4473 100.077 18.0293 89.6279 17.9316H73.2217Z" fill="#444444"/>
</svg>
