<svg width="768" height="48" viewBox="0 0 768 48" fill="none" xmlns="http://www.w3.org/2000/svg">
<path d="M0.28125 47V1.5H13.125C17.0833 1.5 20.5833 2.375 23.625 4.125C26.6667 5.875 29.0104 8.36458 30.6562 11.5938C32.3229 14.8229 33.1667 18.5312 33.1875 22.7188V25.625C33.1875 29.9167 32.3542 33.6771 30.6875 36.9062C29.0417 40.1354 26.6771 42.6146 23.5938 44.3438C20.5312 46.0729 16.9583 46.9583 12.875 47H0.28125ZM6.28125 6.4375V42.0938H12.5938C17.2188 42.0938 20.8125 40.6562 23.375 37.7812C25.9583 34.9062 27.25 30.8125 27.25 25.5V22.8438C27.25 17.6771 26.0312 13.6667 23.5938 10.8125C21.1771 7.9375 17.7396 6.47917 13.2812 6.4375H6.28125ZM64.7988 35.125H45.7363L41.455 47H35.2675L52.6425 1.5H57.8925L75.2988 47H69.1425L64.7988 35.125ZM47.5488 30.1875H63.0175L55.2675 8.90625L47.5488 30.1875ZM96.1913 28.5938H85.5038V47H79.4725V1.5H94.535C99.66 1.5 103.598 2.66667 106.348 5C109.118 7.33333 110.504 10.7292 110.504 15.1875C110.504 18.0208 109.733 20.4896 108.191 22.5938C106.67 24.6979 104.545 26.2708 101.816 27.3125L112.504 46.625V47H106.066L96.1913 28.5938ZM85.5038 23.6875H94.7225C97.7017 23.6875 100.066 22.9167 101.816 21.375C103.587 19.8333 104.473 17.7708 104.473 15.1875C104.473 12.375 103.629 10.2188 101.941 8.71875C100.275 7.21875 97.8579 6.45833 94.6913 6.4375H85.5038V23.6875ZM123.459 47H117.459V1.5H123.459V47ZM158.226 35.125H139.164L134.883 47H128.695L146.07 1.5H151.32L168.726 47H162.57L158.226 35.125ZM140.976 30.1875H156.445L148.695 8.90625L140.976 30.1875ZM186.886 47V1.5H199.73C203.688 1.5 207.188 2.375 210.23 4.125C213.272 5.875 215.615 8.36458 217.261 11.5938C218.928 14.8229 219.772 18.5312 219.792 22.7188V25.625C219.792 29.9167 218.959 33.6771 217.292 36.9062C215.647 40.1354 213.282 42.6146 210.199 44.3438C207.136 46.0729 203.563 46.9583 199.48 47H186.886ZM192.886 6.4375V42.0938H199.199C203.824 42.0938 207.417 40.6562 209.98 37.7812C212.563 34.9062 213.855 30.8125 213.855 25.5V22.8438C213.855 17.6771 212.636 13.6667 210.199 10.8125C207.782 7.9375 204.345 6.47917 199.886 6.4375H192.886ZM243.654 28.5938H232.966V47H226.935V1.5H241.997C247.122 1.5 251.06 2.66667 253.81 5C256.581 7.33333 257.966 10.7292 257.966 15.1875C257.966 18.0208 257.195 20.4896 255.654 22.5938C254.133 24.6979 252.008 26.2708 249.279 27.3125L259.966 46.625V47H253.529L243.654 28.5938ZM232.966 23.6875H242.185C245.164 23.6875 247.529 22.9167 249.279 21.375C251.05 19.8333 251.935 17.7708 251.935 15.1875C251.935 12.375 251.091 10.2188 249.404 8.71875C247.737 7.21875 245.32 6.45833 242.154 6.4375H232.966V23.6875ZM270.921 47H264.921V1.5H270.921V47ZM305.689 35.125H286.626L282.345 47H276.158L293.533 1.5H298.783L316.189 47H310.033L305.689 35.125ZM288.439 30.1875H303.908L296.158 8.90625L288.439 30.1875ZM331.956 25.8438L326.394 31.625V47H320.394V1.5H326.394V24L346.612 1.5H353.862L335.956 21.5938L355.269 47H348.081L331.956 25.8438ZM393.568 47H387.536V25.9688H364.599V47H358.599V1.5H364.599V21.0625H387.536V1.5H393.568V47ZM408.335 42.0938H429.897V47H402.304V1.5H408.335V42.0938ZM467.759 25.7188C467.759 30.1771 467.009 34.0729 465.509 37.4062C464.009 40.7188 461.884 43.25 459.134 45C456.384 46.75 453.175 47.625 449.509 47.625C445.925 47.625 442.748 46.75 439.978 45C437.207 43.2292 435.05 40.7188 433.509 37.4688C431.988 34.1979 431.207 30.4167 431.165 26.125V22.8438C431.165 18.4688 431.925 14.6042 433.446 11.25C434.967 7.89583 437.113 5.33333 439.884 3.5625C442.675 1.77083 445.863 0.875 449.446 0.875C453.092 0.875 456.3 1.76042 459.071 3.53125C461.863 5.28125 464.009 7.83333 465.509 11.1875C467.009 14.5208 467.759 18.4062 467.759 22.8438V25.7188ZM461.79 22.7812C461.79 17.3854 460.707 13.25 458.54 10.375C456.373 7.47917 453.342 6.03125 449.446 6.03125C445.655 6.03125 442.665 7.47917 440.478 10.375C438.311 13.25 437.196 17.25 437.134 22.375V25.7188C437.134 30.9479 438.228 35.0625 440.415 38.0625C442.623 41.0417 445.655 42.5312 449.509 42.5312C453.384 42.5312 456.384 41.125 458.509 38.3125C460.634 35.4792 461.728 31.4271 461.79 26.1562V22.7812ZM489.214 39.0312L502.214 1.5H508.776L491.901 47H486.589L469.745 1.5H476.276L489.214 39.0312ZM535.731 35.125H516.669L512.388 47H506.2L523.575 1.5H528.825L546.231 47H540.075L535.731 35.125ZM518.481 30.1875H533.95L526.2 8.90625L518.481 30.1875ZM564.391 47V1.5H577.235C581.193 1.5 584.693 2.375 587.735 4.125C590.777 5.875 593.12 8.36458 594.766 11.5938C596.433 14.8229 597.277 18.5312 597.297 22.7188V25.625C597.297 29.9167 596.464 33.6771 594.797 36.9062C593.152 40.1354 590.787 42.6146 587.704 44.3438C584.641 46.0729 581.068 46.9583 576.985 47H564.391ZM570.391 6.4375V42.0938H576.704C581.329 42.0938 584.922 40.6562 587.485 37.7812C590.068 34.9062 591.36 30.8125 591.36 25.5V22.8438C591.36 17.6771 590.141 13.6667 587.704 10.8125C585.287 7.9375 581.85 6.47917 577.391 6.4375H570.391ZM630.19 25.9688H610.471V42.0938H633.378V47H604.471V1.5H633.065V6.4375H610.471V21.0625H630.19V25.9688ZM652.333 26.7188C647.187 25.2396 643.437 23.4271 641.083 21.2812C638.749 19.1146 637.583 16.4479 637.583 13.2812C637.583 9.69792 639.01 6.73958 641.864 4.40625C644.739 2.05208 648.468 0.875 653.051 0.875C656.176 0.875 658.958 1.47917 661.395 2.6875C663.853 3.89583 665.749 5.5625 667.083 7.6875C668.437 9.8125 669.114 12.1354 669.114 14.6562H663.083C663.083 11.9062 662.208 9.75 660.458 8.1875C658.708 6.60417 656.239 5.8125 653.051 5.8125C650.093 5.8125 647.78 6.46875 646.114 7.78125C644.468 9.07292 643.645 10.875 643.645 13.1875C643.645 15.0417 644.426 16.6146 645.989 17.9062C647.572 19.1771 650.249 20.3438 654.02 21.4062C657.812 22.4688 660.77 23.6458 662.895 24.9375C665.041 26.2083 666.624 27.6979 667.645 29.4062C668.687 31.1146 669.208 33.125 669.208 35.4375C669.208 39.125 667.77 42.0833 664.895 44.3125C662.02 46.5208 658.176 47.625 653.364 47.625C650.239 47.625 647.322 47.0312 644.614 45.8438C641.905 44.6354 639.812 42.9896 638.333 40.9062C636.874 38.8229 636.145 36.4583 636.145 33.8125H642.176C642.176 36.5625 643.187 38.7396 645.208 40.3438C647.249 41.9271 649.968 42.7188 653.364 42.7188C656.53 42.7188 658.958 42.0729 660.645 40.7812C662.333 39.4896 663.176 37.7292 663.176 35.5C663.176 33.2708 662.395 31.5521 660.833 30.3438C659.27 29.1146 656.437 27.9062 652.333 26.7188ZM681.444 47H675.444V1.5H681.444V47ZM724.117 41.0312C722.576 43.2396 720.42 44.8958 717.649 46C714.899 47.0833 711.69 47.625 708.024 47.625C704.315 47.625 701.024 46.7604 698.149 45.0312C695.274 43.2812 693.045 40.8021 691.461 37.5938C689.899 34.3854 689.097 30.6667 689.055 26.4375V22.4688C689.055 15.6146 690.649 10.3021 693.836 6.53125C697.045 2.76042 701.545 0.875 707.336 0.875C712.086 0.875 715.909 2.09375 718.805 4.53125C721.701 6.94792 723.472 10.3854 724.117 14.8438H718.117C716.992 8.82292 713.409 5.8125 707.367 5.8125C703.347 5.8125 700.295 7.22917 698.211 10.0625C696.149 12.875 695.107 16.9583 695.086 22.3125V26.0312C695.086 31.1354 696.253 35.1979 698.586 38.2188C700.92 41.2188 704.076 42.7188 708.055 42.7188C710.305 42.7188 712.274 42.4688 713.961 41.9688C715.649 41.4688 717.045 40.625 718.149 39.4375V29.2188H707.617V24.3438H724.117V41.0312ZM767.198 47H761.166L738.26 11.9375V47H732.229V1.5H738.26L761.229 36.7188V1.5H767.198V47Z" fill="#444444"/>
</svg>